<svg xmlns="http://www.w3.org/2000/svg" width="31" height="24" fill="none" viewBox="0 0 31 24"><path fill="#c6c5c6" d="M11.92.256q.384 0 .384.384v11.136q0 3.456-1.632 6.144-1.632 2.784-4.224 4.32-2.688 1.632-5.76 1.632V17.92q2.4 0 4.128-1.824 1.632-1.824 1.632-4.32H1.072q-.384 0-.384-.384V.64q0-.384.384-.384Zm17.856 0q.384 0 .384.384v11.136q0 3.456-1.632 6.144-1.632 2.784-4.224 4.32-2.688 1.632-5.76 1.632V17.92q2.4 0 4.128-1.824 1.632-1.824 1.632-4.32h-5.376q-.384 0-.384-.384V.64q0-.384.384-.384Z"/></svg>